<svg version="1.2" xmlns="http://www.w3.org/2000/svg" viewBox="0 0 48 48" width="48" height="48">
	<title>name-ico-svg</title>
	<style>
		.s0 { fill: #828282 } 
	</style>
	<path id="Layer" fill-rule="evenodd" class="s0" d="m24 44q-4.2 0-7.9-1.6-3.6-1.6-6.3-4.3-2.7-2.7-4.3-6.3-1.5-3.7-1.5-7.9 0-4 1.6-7.7 1.6-3.7 4.3-6.3 2.7-2.8 6.3-4.3 3.7-1.6 7.9-1.6 4 0 7.7 1.6 3.7 1.6 6.3 4.3 2.8 2.7 4.3 6.3 1.6 3.7 1.6 7.8 0 4.1-1.6 7.8-1.6 3.6-4.3 6.3-2.6 2.8-6.3 4.3-3.7 1.6-7.8 1.6zm-12.9-8.8q3.1-1.9 6.2-3 3.1-1 6.7-1 3.6 0 6.7 1 3.1 1.1 6.3 3.1 2.2-2.8 3.1-5.5 0.9-2.7 0.9-5.8 0-7.2-4.9-12.1-4.9-4.9-12.1-4.9-7.3 0-12.1 4.9-4.9 4.9-4.9 12.1 0 3.1 0.9 5.8 1 2.7 3.2 5.5zm12.9-9.8q-2.9 0-4.9-2-2-1.9-2-4.8 0-3 2-4.9 2-2 4.9-2 2.9 0 4.9 2 1.9 2 1.9 4.9 0.1 2.9-1.9 4.8-2 2-4.9 2z"/>
</svg>