<svg version="1.2" xmlns="http://www.w3.org/2000/svg" viewBox="0 0 48 48" width="48" height="48">
	<title>phone-ico-svg</title>
	<style>
		.s0 { fill: #828282 } 
	</style>
	<path id="Layer" class="s0" d="m39.8 42q-6.2 0-12.2-3-6-3-10.8-7.8-4.8-4.8-7.8-10.8-3-6-3-12.1 0-1 0.7-1.6 0.6-0.7 1.6-0.7h7q0.7 0 1.2 0.5 0.5 0.4 0.7 1.3l1.3 6.3q0.1 0.7 0 1.2-0.1 0.6-0.5 1l-5 5.1q2.8 4.6 6.2 8.1 3.5 3.4 7.9 5.8l4.8-4.9q0.5-0.6 1.1-0.8 0.6-0.2 1.3 0l6 1.3q0.7 0.1 1.2 0.7 0.5 0.6 0.5 1.4v6.8q0 0.9-0.6 1.6-0.7 0.6-1.6 0.6z"/>
</svg>